# xmcd CD database file
#
# Track frame offsets:
#	150
#	19587
#	50330
#	74622
#	105340
#	135172
#	158412
#
# Disc length: 2436 seconds
#
# Revision: 0
# Processed by: cddbd v1.5.2PL0 Copyright (c) Steve Scherf et al.
# Submitted via: CDex 1.70beta2
#
DISCID=49098207
DTITLE=Masato Suzuki - Unfixed Music
DYEAR=2006
DGENRE=Jazz
TTITLE0=Mist Goes Out
TTITLE1=El Hombre Dorado
TTITLE2=Hide-Covered Trunk
TTITLE3=A Tone of Black
TTITLE4=A Giraffe Has Some Melancholy
TTITLE5=Circus Act
TTITLE6=Tiny Notes
EXTD=YEAR: 2006
EXTT0=
EXTT1=
EXTT2=
EXTT3=
EXTT4=
EXTT5=
EXTT6=
PLAYORDER=
